<svg width="64" height="64" viewBox="0 0 64 64" fill="none" xmlns="http://www.w3.org/2000/svg">
  <!-- Background circle with gradient -->
  <defs>
    <linearGradient id="cosmicGradient" x1="0%" y1="0%" x2="100%" y2="100%">
      <stop offset="0%" style="stop-color:#8B5CF6;stop-opacity:1" />
      <stop offset="50%" style="stop-color:#6366F1;stop-opacity:1" />
      <stop offset="100%" style="stop-color:#3B82F6;stop-opacity:1" />
    </linearGradient>
    <radialGradient id="glowGradient" cx="50%" cy="50%" r="50%">
      <stop offset="0%" style="stop-color:#FFFFFF;stop-opacity:0.3" />
      <stop offset="100%" style="stop-color:#8B5CF6;stop-opacity:0" />
    </radialGradient>
  </defs>

  <!-- Main circle background -->
  <circle cx="32" cy="32" r="30" fill="url(#cosmicGradient)"/>

  <!-- Glow effect -->
  <circle cx="32" cy="32" r="30" fill="url(#glowGradient)"/>

  <!-- Main star in center -->
  <path d="M32 12L35.5 25.5L49 29L35.5 32.5L32 46L28.5 32.5L15 29L28.5 25.5L32 12Z" fill="white" opacity="0.95"/>

  <!-- Small stars around -->
  <path d="M20 18L21 20L23 21L21 22L20 24L19 22L17 21L19 20L20 18Z" fill="white" opacity="0.8"/>
  <path d="M44 20L45 22L47 23L45 24L44 26L43 24L41 23L43 22L44 20Z" fill="white" opacity="0.8"/>
  <path d="M24 44L25 46L27 47L25 48L24 50L23 48L21 47L23 46L24 44Z" fill="white" opacity="0.7"/>
  <path d="M40 42L41 44L43 45L41 46L40 48L39 46L37 45L39 44L40 42Z" fill="white" opacity="0.7"/>

  <!-- Orbital ring suggesting DEX/exchange -->
  <circle cx="32" cy="32" r="24" stroke="white" stroke-width="1.5" fill="none" opacity="0.3" stroke-dasharray="3 3"/>
</svg>
